<?xml version="1.0" encoding="utf-8"?>
<!-- Generator: Adobe Illustrator 26.2.1, SVG Export Plug-In . SVG Version: 6.00 Build 0)  -->
<svg version="1.1" id="Layer_1" xmlns="http://www.w3.org/2000/svg" xmlns:xlink="http://www.w3.org/1999/xlink" x="0px" y="0px"
	 viewBox="0 0 693.302 248.34" style="enable-background:new 0 0 693.302 248.34;" xml:space="preserve">
<style type="text/css">
	.st0{fill:#6EB44C;}
	.st1{fill:#FCCAA4;}
</style>
<g>
	<path class="st0" d="M120.43,46.466c0.807,0.603,1.612,1.61,1.814,1.61c2.021,1.411,4.237,2.016,6.052,2.016
		c3.225,0,6.657-1.814,10.283-5.646h-0.194c-4.038-3.025-7.866-4.637-11.096-4.435c-1.814,0-3.634,0.604-5.448,1.812
		c-12.305,7.866-27.424,7.061-38.319-3.828c-7.059-7.261-10.887-18.758-11.291-34.69l-0.2-3.023l3.223-0.202
		c4.239-0.203,8.268,0,11.902,0.404c9.88,1.007,17.342,4.232,22.589,9.678c4.633,4.839,7.462,11.092,8.267,18.958
		c0,0,0.202,1.213,0.202,2.823l-5.246,2.218c-0.2,0.202-0.603,0.402-1.007,0.603c-0.202-2.418-0.402-5.846-0.402-6.048
		c-0.807-5.846-3.023-10.487-6.455-13.917c-4.03-4.436-10.283-7.055-18.551-8.066c-2.425-0.202-5.045-0.404-7.866-0.404
		c0.807,12.503,3.828,21.578,9.478,27.024c16.535,16.739,28.027,0.605,38.922,0.202c4.835-0.202,9.88,1.814,15.126,5.85
		c1.007,0.807,2.014,1.613,3.021,2.418l2.223,2.02l-1.82,2.421c-5.642,6.655-11.291,10.082-17.14,10.284
		c-5.037,0-10.082-2.42-14.723-7.462C116.193,48.48,118.416,47.473,120.43,46.466L120.43,46.466z"/>
	<g>
		<g>
			<path class="st1" d="M108.133,248.34c-10.693-18.148-19.566-35.088-26.423-51.02C13.139,217.088-18.321,113.221,10.919,68.45
				c5.646-8.473,13.109-15.328,22.185-19.566c18.958-9.276,43.965-7.866,68.775,9.48c-2.625,0.805-5.043,1.612-7.67,2.623
				c-21.372-13.313-42.349-14.12-58.28-6.456c-7.866,4.034-14.723,9.88-19.566,17.544c-27.428,41.751,6.254,138.147,62.921,119.395
				c-3.225-7.866-6.044-15.528-8.268-22.79c-7.259-23.394-9.075-43.765-5.441-60.703l0,0c3.223-14.119,10.484-24.804,19.962-32.468
				c7.462-5.648,16.341-9.48,25.416-11.298c9.075-1.812,18.551-1.812,27.626,0.202c12.507,2.825,23.803,9.28,31.669,19.364
				c5.239,6.653,8.469,13.51,10.284,20.571c2.014,7.662,2.014,15.326,0.603,22.789c-9.275,48.606-53.645,59.089-84.904,66.761
				l-1.814,0.402l-0.207-0.402c-0.807-1.822-1.612-3.634-2.418-5.656l2.827-0.807c29.647-7.055,71.794-16.938,80.263-61.511
				c1.216-6.651,1.009-13.309-0.603-19.962c-1.411-6.253-4.434-12.305-9.075-18.155c-6.857-8.873-16.939-14.517-28.035-17.141
				c-8.068-1.814-16.739-1.814-25.006-0.202c-8.066,1.613-15.932,5.045-22.588,10.284c-8.469,6.455-14.923,16.137-17.751,28.64
				c-3.223,15.932-1.403,35.094,5.448,57.48c1.416,4.839,3.029,9.678,5.043,14.723l0,0l0.807,2.216l0,0
				c0.805,2.016,1.611,4.03,2.418,5.85l0,0c0.805,2.217,1.82,4.239,2.627,6.046l0,0l0.603,1.82l0.202,0.202
				c1.612,3.828,3.223,7.261,4.641,10.082c5.642,11.7,12.298,24.207,20.163,37.31L108.133,248.34z"/>
		</g>
		<g>
			<g>
				<path class="st1" d="M204.734,127.415c1.645,14.568,7.519,26.318,17.389,35.482c9.869,8.932,21.852,13.394,35.953,13.394
					c16.213,0,28.902-4.23,38.066-12.924c2.115-1.644,3.29-2.586,3.76-2.586c0.705,0,1.411,0.471,2.115,1.412l0.94,1.174
					c0.469,0.471,0.705,1.174,0.705,1.88c0,1.174-1.175,2.586-3.76,4.466c-12.69,9.635-26.553,14.333-41.357,14.333
					c-17.388,0-31.958-5.875-43.941-17.625c-11.75-11.982-17.625-26.318-17.625-43.234c0-16.686,5.875-31.019,17.389-42.769
					c11.515-11.747,25.614-17.622,42.297-17.622c15.979,0,29.138,5.64,39.477,17.154c10.575,11.279,15.743,25.612,15.743,43.237
					c0,2.348,0,4.227-3.054,4.227H204.734z M304.366,119.896c-3.76-32.193-21.852-49.344-47.466-49.344
					c-13.864,0-25.614,4.463-35.248,13.391c-9.635,8.932-15.274,20.914-16.919,35.953H304.366z"/>
			</g>
			<g>
				<path class="st1" d="M344.785,166.421c-11.75-11.982-17.625-26.318-17.625-43.234c0-16.686,5.875-30.784,17.625-42.534
					c11.984-11.982,26.318-17.857,43.237-17.857c22.325,0,39.946,10.338,52.873,31.252V67.495c0-1.88,0.938-2.818,2.818-2.818h1.88
					c1.88,0,2.821,0.938,2.821,2.818v111.853c0,1.877-0.941,2.818-2.821,2.818h-1.88c-1.88,0-2.818-0.941-2.818-2.818v-26.553
					c-12.927,20.911-30.549,31.252-52.873,31.252C371.103,184.046,356.769,178.171,344.785,166.421z M425.385,161.017
					c10.338-10.338,15.51-23.026,15.51-37.83c0-14.807-5.172-27.26-15.51-37.365c-10.105-10.102-22.794-15.271-37.834-15.271
					c-14.568,0-27.023,5.169-37.362,15.507c-10.104,10.105-15.274,22.558-15.274,37.13c0,14.804,5.17,27.492,15.274,37.83
					c10.339,10.105,23.029,15.274,37.833,15.274C402.827,176.291,415.28,171.123,425.385,161.017z"/>
			</g>
			<g>
				<path class="st1" d="M486.247,166.421c-11.75-11.982-17.625-26.318-17.625-43.234c0-16.686,5.875-30.784,17.625-42.534
					c11.982-11.982,26.318-17.857,43.237-17.857c18.328,0,34.308,7.987,48.17,23.732c2.115,2.586,3.292,4.701,3.292,6.11
					c0,0.938-0.471,1.645-1.648,2.351l-1.409,0.938c-0.703,0.235-1.174,0.471-1.409,0.471c-0.941,0-1.88-0.941-3.054-2.586
					c-11.047-15.51-25.85-23.261-43.943-23.261c-14.804,0-27.26,5.169-37.597,15.507c-10.341,10.105-15.51,22.558-15.51,37.13
					c0,14.804,5.169,27.492,15.274,37.83c10.338,10.105,23.029,15.274,37.833,15.274c18.093,0,33.838-9.164,42.295-21.385
					c2.351-3.054,3.995-4.463,4.701-4.463l1.644,0.471l1.409,0.938c1.177,0.706,1.644,1.409,1.644,2.115
					c0,1.88-2.583,5.64-7.752,11.279c-11.75,12.453-26.318,18.799-43.943,18.799C512.565,184.046,498.229,178.171,486.247,166.421z"
					/>
			</g>
			<g>
				<path class="st1" d="M610.083,83.24c9.87-13.63,22.558-20.443,38.068-20.443c12.453,0,23.026,4.463,31.722,13.159
					c8.929,8.693,13.394,19.266,13.394,31.722v71.67c0.232,1.877-0.706,2.818-2.821,2.818h-1.88c-1.88,0-2.818-0.941-2.818-2.818
					v-72.141c0-10.105-3.76-18.563-11.047-25.847c-7.284-7.284-16.213-10.808-26.786-10.808c-10.576,0-19.505,3.524-26.789,10.808
					c-7.284,7.049-11.044,15.51-11.044,25.377v72.612c0.235,1.877-0.706,2.818-2.821,2.818h-1.88c-1.88,0-2.818-0.941-2.818-2.818
					V20.5c0-1.88,0.938-2.82,2.818-2.82h1.88c2.115,0,3.057,0.94,2.821,2.82V83.24z"/>
			</g>
		</g>
	</g>
</g>
</svg>
