<?xml version="1.0" encoding="utf-8"?>
<!-- Generator: Adobe Illustrator 26.2.1, SVG Export Plug-In . SVG Version: 6.00 Build 0)  -->
<svg version="1.1" id="Capa_1" xmlns="http://www.w3.org/2000/svg" xmlns:xlink="http://www.w3.org/1999/xlink" x="0px" y="0px"
	 viewBox="0 0 512 512" style="enable-background:new 0 0 512 512;" xml:space="preserve">
<style type="text/css">
	.st0{fill:url(#SVGID_1_);}
</style>
<linearGradient id="SVGID_1_" gradientUnits="userSpaceOnUse" x1="4.986430e-04" y1="30.0043" x2="512.0028" y2="30.0043" gradientTransform="matrix(1 0 0 1 -2.862228e-04 225.996)">
	<stop  offset="0" style="stop-color:#FADDC2"/>
	<stop  offset="0.021" style="stop-color:#F5C396"/>
	<stop  offset="0.293" style="stop-color:#F5B176"/>
	<stop  offset="0.5503" style="stop-color:#F0882B"/>
	<stop  offset="0.796" style="stop-color:#F07409"/>
	<stop  offset="0.9581" style="stop-color:#EC4F00"/>
	<stop  offset="1" style="stop-color:#EE2D0C"/>
</linearGradient>
<path class="st0" d="M373.535,511.999c-0.375,0-0.747-0.001-1.122-0.002c-35.305-0.177-73.771-9.137-114.332-26.633
	c-10.143-4.375-14.818-16.143-10.443-26.286c4.374-10.143,16.145-14.819,26.285-10.443c35.092,15.136,69.219,23.215,98.689,23.362
	c0.305,0.002,0.609,0.002,0.913,0.002c36.87,0,67.652-11.204,89.1-32.433l0.142-0.157c13.046-14.535,12.252-36.545-1.811-50.105
	c-53.696-51.779-79.047-48.032-102.511-25.151l-37.353,37.075c-5.857,5.814-14.687,7.434-22.225,4.075
	c-2.114-0.941-52.429-23.709-109.126-80.408l-2.633-2.629c-56.705-56.706-79.474-107.018-80.415-109.132
	c-3.357-7.54-1.738-16.368,4.076-22.226l37.074-37.352c22.88-23.463,26.629-48.814-25.15-102.511
	c-13.562-14.063-35.571-14.857-50.108-1.808l-0.153,0.138c-21.403,21.626-32.616,52.739-32.431,90.014
	c0.359,71.919,41.169,155.449,109.164,223.445c12.964,12.961,27.769,25.845,44.004,38.294c8.766,6.721,10.424,19.275,3.702,28.041
	c-6.721,8.766-19.275,10.422-28.04,3.702c-17.622-13.512-33.755-27.56-47.95-41.755C45.603,315.839,0.414,221.811,0.003,139.589
	C-0.238,91.188,15.152,50.087,44.511,20.728c0.254-0.253,0.514-0.5,0.78-0.739l0.574-0.516C60.613,6.235,79.629-0.663,99.446,0.052
	c19.805,0.714,38.286,8.964,52.041,23.229c26.934,27.931,42.481,51.333,48.93,73.646c8.885,30.749,0.805,59.227-24.016,84.64
	c-0.038,0.039-0.076,0.077-0.114,0.115l-26.84,27.041c9.517,16.881,30.432,49.747,65.94,85.254l2.632,2.63
	c35.503,35.502,68.363,56.418,85.262,65.944l27.04-26.838c0.038-0.038,0.076-0.076,0.114-0.113
	c25.416-24.822,53.896-32.902,84.641-24.016c22.314,6.448,45.716,21.996,73.647,48.929c14.265,13.755,22.515,32.237,23.229,52.042
	c0.715,19.804-6.182,38.832-19.419,53.579l-0.519,0.577c-0.239,0.267-0.485,0.526-0.738,0.78
	C462.142,496.62,421.448,511.999,373.535,511.999z"/>
</svg>
